<?xml version="1.0" encoding="utf-8"?>
<svg viewBox="0 0 374.4 82.3" style="enable-background:new 0 0 512 512;" xmlns="http://www.w3.org/2000/svg">
  <g transform="matrix(0.446989, 0, 0, 0.446989, 101.411812, -15.054631)" style="">
    <path d="M -182.134 172.004 L -182.134 152.514 C -177.294 152.514 -173.577 152.381 -170.984 152.114 C -168.384 151.847 -166.477 151.154 -165.264 150.034 C -164.057 148.914 -163.364 147.277 -163.184 145.124 C -163.004 142.257 -162.914 139.301 -162.914 136.254 L -162.914 79.534 L -136.034 79.534 L -136.034 127.114 C -136.034 135.714 -136.171 142.301 -136.444 146.874 C -136.711 151.441 -137.291 155.247 -138.184 158.294 C -139.171 161.607 -140.627 164.184 -142.554 166.024 C -144.481 167.857 -147.147 169.224 -150.554 170.124 C -153.687 170.931 -157.607 171.444 -162.314 171.664 C -167.014 171.891 -173.621 172.004 -182.134 172.004 Z M -55.266 100.774 C -58.22 100.414 -63.416 99.921 -70.856 99.294 C -74.976 99.114 -78.29 99.024 -80.796 99.024 C -84.023 99.024 -87.07 99.114 -89.936 99.294 L -89.936 78.464 L -86.576 78.464 C -79.23 78.464 -71.616 78.957 -63.736 79.944 C -61.223 80.297 -58.4 80.787 -55.266 81.414 L -55.266 100.774 Z M -77.436 172.944 L -77.436 144.724 C -77.436 142.837 -77.573 141.471 -77.846 140.624 C -78.113 139.771 -78.56 139.187 -79.186 138.874 C -79.813 138.561 -80.89 138.314 -82.416 138.134 L -98.946 136.124 C -108.713 135.044 -115.3 131.861 -118.706 126.574 C -120.226 124.334 -121.256 121.601 -121.796 118.374 C -122.33 115.154 -122.596 111.214 -122.596 106.554 C -122.596 96.607 -120.043 89.437 -114.936 85.044 C -110.816 81.464 -104.366 79.361 -95.586 78.734 L -95.586 105.744 C -95.586 106.911 -95.54 107.897 -95.446 108.704 C -95.36 109.511 -95.183 110.137 -94.916 110.584 C -94.643 111.124 -94.193 111.504 -93.566 111.724 C -92.94 111.951 -92 112.107 -90.746 112.194 L -72.196 114.484 C -68.343 115.017 -65.206 115.687 -62.786 116.494 C -60.373 117.301 -58.313 118.557 -56.606 120.264 C -52.573 124.471 -50.556 131.951 -50.556 142.704 C -50.556 154.084 -53.066 162.057 -58.086 166.624 C -60.326 168.691 -63.036 170.194 -66.216 171.134 C -69.396 172.074 -73.136 172.677 -77.436 172.944 Z M -84.566 173.084 C -93.526 173.084 -101.86 172.681 -109.566 171.874 C -114.133 171.421 -117.58 170.971 -119.906 170.524 L -119.906 150.904 C -114.626 151.351 -108.58 151.797 -101.766 152.244 C -97.466 152.424 -94.42 152.514 -92.626 152.514 C -87.786 152.514 -84.606 152.381 -83.086 152.114 L -83.086 173.084 L -84.566 173.084 Z M -36.717 172.004 L -36.717 79.534 L -9.837 79.534 L -9.837 172.004 L -36.717 172.004 Z M -4.197 172.004 L -4.197 151.444 L -3.117 151.444 C 1.27 151.444 4.383 151.241 6.223 150.834 C 8.056 150.434 9.423 149.471 10.323 147.944 C 11.303 146.331 11.84 143.777 11.933 140.284 C 12.113 135.804 12.203 130.967 12.203 125.774 C 12.203 120.667 12.113 115.784 11.933 111.124 C 11.753 107.631 11.193 105.077 10.253 103.464 C 9.313 101.851 7.813 100.864 5.753 100.504 C 3.693 100.237 0.736 100.104 -3.117 100.104 L -4.197 100.104 L -4.197 79.534 L -3.117 79.534 C 4.05 79.534 10.03 79.847 14.823 80.474 C 19.616 81.101 23.58 82.087 26.713 83.434 C 29.76 84.781 32.18 86.617 33.973 88.944 C 35.766 91.277 37.066 94.191 37.873 97.684 C 38.586 100.817 39.056 104.511 39.283 108.764 C 39.51 113.024 39.623 118.694 39.623 125.774 C 39.623 132.941 39.51 138.631 39.283 142.844 C 39.056 147.051 38.586 150.724 37.873 153.864 C 37.066 157.357 35.766 160.267 33.973 162.594 C 32.18 164.927 29.76 166.764 26.713 168.104 C 23.58 169.451 19.616 170.437 14.823 171.064 C 10.03 171.691 4.05 172.004 -3.117 172.004 L -4.197 172.004 Z M 91.891 172.814 L 91.891 137.864 C 91.891 133.297 91.848 130.251 91.761 128.724 C 91.675 126.577 91.405 124.944 90.951 123.824 C 90.505 122.704 89.788 122.007 88.801 121.734 C 87.728 121.467 86.251 121.334 84.371 121.334 L 82.491 121.334 L 82.491 102.384 L 84.371 102.384 C 92.165 102.384 98.258 102.991 102.651 104.204 C 107.038 105.411 110.308 107.404 112.461 110.184 C 114.428 112.691 115.705 116.027 116.291 120.194 C 116.871 124.361 117.161 130.251 117.161 137.864 C 117.161 144.944 116.961 150.434 116.561 154.334 C 116.155 158.227 115.191 161.431 113.671 163.944 C 111.965 166.717 109.411 168.801 106.011 170.194 C 102.605 171.581 97.898 172.454 91.891 172.814 Z M 84.371 173.084 C 76.578 173.084 70.485 172.501 66.091 171.334 C 61.698 170.167 58.428 168.194 56.281 165.414 C 54.308 162.907 53.031 159.594 52.451 155.474 C 51.865 151.354 51.571 145.484 51.571 137.864 C 51.571 130.877 51.798 125.414 52.251 121.474 C 52.698 117.527 53.681 114.254 55.201 111.654 C 56.815 108.787 59.325 106.661 62.731 105.274 C 66.138 103.887 70.841 103.014 76.841 102.654 L 76.841 137.864 C 76.841 142.437 76.888 145.441 76.981 146.874 C 77.068 149.021 77.335 150.634 77.781 151.714 C 78.228 152.787 78.991 153.457 80.071 153.724 C 80.965 153.991 82.398 154.124 84.371 154.124 L 86.251 154.124 L 86.251 173.084 L 84.371 173.084 Z M 179.115 122.274 L 174.955 121.874 C 172.715 121.514 169.488 121.334 165.275 121.334 C 162.495 121.334 160.525 121.514 159.365 121.874 L 159.365 102.384 C 165.725 102.477 172.308 103.284 179.115 104.804 L 179.115 122.274 Z M 158.425 173.084 C 151.432 173.084 145.875 172.231 141.755 170.524 C 137.635 168.824 134.588 166.317 132.615 163.004 C 130.822 160.131 129.678 156.771 129.185 152.924 C 128.692 149.071 128.445 144.051 128.445 137.864 C 128.445 132.224 128.672 127.521 129.125 123.754 C 129.572 119.994 130.512 116.677 131.945 113.804 C 133.645 110.491 136.222 107.917 139.675 106.084 C 143.122 104.244 147.802 103.101 153.715 102.654 L 153.715 137.734 C 153.715 141.674 153.828 144.631 154.055 146.604 C 154.275 148.577 154.745 150.101 155.465 151.174 C 156.272 152.247 157.415 153.007 158.895 153.454 C 160.368 153.901 162.495 154.124 165.275 154.124 C 170.022 154.124 173.292 153.991 175.085 153.724 L 179.655 153.184 L 179.655 170.664 C 173.028 172.277 165.952 173.084 158.425 173.084 Z M 193.498 101.174 L 193.498 81.824 C 204.878 79.311 216.615 78.191 228.708 78.464 L 228.708 99.424 C 227.008 99.157 223.468 99.024 218.088 99.024 C 213.702 99.024 208.282 99.384 201.828 100.104 L 193.498 101.174 Z M 191.618 172.004 L 191.618 158.434 C 191.618 152.607 191.795 147.901 192.148 144.314 C 192.508 140.734 193.272 137.644 194.438 135.044 C 195.692 132.264 197.462 129.867 199.748 127.854 C 202.035 125.841 205.148 124.027 209.088 122.414 L 224.808 116.094 C 226.782 115.287 228.485 114.547 229.918 113.874 C 231.352 113.201 232.338 112.551 232.878 111.924 C 233.505 111.297 233.908 110.561 234.088 109.714 C 234.268 108.861 234.358 107.627 234.358 106.014 L 234.358 78.594 C 238.658 78.867 242.352 79.384 245.438 80.144 C 248.532 80.904 251.198 82.134 253.438 83.834 C 258.638 87.867 261.238 94.857 261.238 104.804 C 261.238 113.404 259.805 119.811 256.938 124.024 C 254.245 128.057 249.852 131.194 243.758 133.434 L 224.678 140.824 C 223.065 141.451 221.742 142.034 220.708 142.574 C 219.682 143.107 218.945 143.644 218.498 144.184 C 218.045 144.724 217.775 145.441 217.688 146.334 C 217.602 147.227 217.558 148.704 217.558 150.764 L 217.558 172.004 L 191.618 172.004 Z M 223.198 172.004 L 223.198 151.034 L 261.238 151.034 L 261.238 172.004 L 223.198 172.004 Z M 318.087 172.004 L 276.557 83.564 L 276.557 79.534 L 301.287 79.534 L 339.987 161.794 L 335.557 172.004 L 318.087 172.004 Z M 352.487 172.004 L 352.487 133.164 L 351.947 133.164 L 342.947 154.934 L 331.387 130.204 L 352.487 79.534 L 378.027 79.534 L 378.027 172.004 L 352.487 172.004 Z M 276.557 172.004 L 276.557 96.874 L 301.287 149.564 L 301.287 172.004 L 276.557 172.004 Z M 395.496 172.004 L 395.496 79.534 L 422.376 79.534 L 422.376 172.004 L 395.496 172.004 Z M 428.016 172.004 L 428.016 151.444 L 429.096 151.444 C 433.483 151.444 436.596 151.241 438.436 150.834 C 440.269 150.434 441.636 149.471 442.536 147.944 C 443.516 146.331 444.053 143.777 444.146 140.284 C 444.326 135.804 444.416 130.967 444.416 125.774 C 444.416 120.667 444.326 115.784 444.146 111.124 C 443.966 107.631 443.406 105.077 442.466 103.464 C 441.526 101.851 440.026 100.864 437.966 100.504 C 435.906 100.237 432.949 100.104 429.096 100.104 L 428.016 100.104 L 428.016 79.534 L 429.096 79.534 C 436.263 79.534 442.243 79.847 447.036 80.474 C 451.829 81.101 455.793 82.087 458.926 83.434 C 461.973 84.781 464.393 86.617 466.186 88.944 C 467.979 91.277 469.279 94.191 470.086 97.684 C 470.799 100.817 471.269 104.511 471.496 108.764 C 471.723 113.024 471.836 118.694 471.836 125.774 C 471.836 132.941 471.723 138.631 471.496 142.844 C 471.269 147.051 470.799 150.724 470.086 153.864 C 469.279 157.357 467.979 160.267 466.186 162.594 C 464.393 164.927 461.973 166.764 458.926 168.104 C 455.793 169.451 451.829 170.437 447.036 171.064 C 442.243 171.691 436.263 172.004 429.096 172.004 L 428.016 172.004 Z M 535.266 172.004 L 476.666 79.534 L 507.176 79.534 L 565.906 172.004 L 535.266 172.004 Z M 539.966 120.664 L 525.856 98.354 L 536.066 79.534 L 565.506 79.534 L 539.966 120.664 Z M 476.126 172.004 L 501.936 130.074 L 515.906 152.244 L 505.566 172.004 L 476.126 172.004 Z" style="fill: #FFFFFF;" />
  </g>
</svg>
